<?xml version="1.0" standalone="no"?><!DOCTYPE svg PUBLIC "-//W3C//DTD SVG 1.1//EN" "http://www.w3.org/Graphics/SVG/1.1/DTD/svg11.dtd"><svg t="1775661304805" class="icon" viewBox="0 0 1024 1024" version="1.1" xmlns="http://www.w3.org/2000/svg" p-id="5785" width="128" height="128" xmlns:xlink="http://www.w3.org/1999/xlink"><path d="M0 0h1024v1024H0V0z" fill="#202425" opacity=".01" p-id="5786"></path><path d="M607.6416 99.908267c4.471467 11.639467 12.6976 21.845333 24.200533 26.7264A307.3024 307.3024 0 0 1 819.2 409.6v204.8a34.133333 34.133333 0 0 0 34.133333 34.133333 68.266667 68.266667 0 1 1 0 136.533334H170.666667a68.266667 68.266667 0 1 1 0-136.533334 34.133333 34.133333 0 0 0 34.133333-34.133333v-204.8a307.3024 307.3024 0 0 1 187.392-282.965333c11.4688-4.846933 19.694933-15.086933 24.132267-26.7264a102.434133 102.434133 0 0 1 191.317333 0z" fill="#FF7744" p-id="5787"></path><path d="M341.333333 832.170667a17.066667 17.066667 0 0 1 16.5888-12.970667h308.155734a17.066667 17.066667 0 0 1 16.5888 12.970667A170.973867 170.973867 0 0 1 512 989.866667a170.973867 170.973867 0 0 1-170.666667-157.696z" fill="#FFAA44" p-id="5788"></path></svg>